# xmcd
#
# Track frame offsets:
#	150
#	13987
#	26694
#	40832
#	57022
#	72137
#	86762
#	101030
#	115565
#	128229
#	140347
#	154747
#
# Disc length: 2230 seconds
#
# Revision: 1
# Processed by: cddbd v1.5.1PL0 Copyright (c) Steve Scherf et al.
# Submitted via: audiograbber 1.83.01
#
DISCID=9b08b40c
DTITLE=Maciel Melo - Alegria de Nós Dois
DYEAR=1900
DGENRE=Forro
TTITLE0=No Batente da Janela
TTITLE1=No Batuque do Melê
TTITLE2=Caboclo Sonhador
TTITLE3=Quero Dançar
TTITLE4=Feira de Sonhos
TTITLE5=Pode Mentir Que Eu Não Ligo
TTITLE6=Alegria de Nós Dois
TTITLE7=Chovendo Sinceridade
TTITLE8=Que Nem Vem, Vem
TTITLE9=Rosto da Solidão
TTITLE10=Terra Prometida
TTITLE11=Pergaminho
EXTD=
EXTT0=
EXTT1=
EXTT2=
EXTT3=
EXTT4=
EXTT5=
EXTT6=
EXTT7=
EXTT8=
EXTT9=
EXTT10=
EXTT11=
PLAYORDER=
